<svg xmlns="http://www.w3.org/2000/svg" xmlns:xlink="http://www.w3.org/1999/xlink" version="1.1" class="marks" width="2127" height="879" viewBox="0 0 2127 879"><rect width="2127" height="879" fill="#fff"/><g fill="none" stroke-miterlimit="10" transform="translate(72,57)"><g class="mark-group role-frame root" role="graphics-object" aria-roledescription="group mark container"><g transform="translate(0,0)"><path class="background" aria-hidden="true" d="M0.5,0.5h2050v800h-2050Z" stroke="#ddd"/><g><g class="mark-group role-axis" aria-hidden="true"><g transform="translate(0.5,0.5)"><path class="background" aria-hidden="true" d="M0,0h0v0h0Z" pointer-events="none"/><g><g class="mark-rule role-axis-grid" pointer-events="none"><line transform="translate(0,800)" x2="2050" y2="0" stroke="#e1e8f0" stroke-width="1" opacity="1"/><line transform="translate(0,764)" x2="2050" y2="0" stroke="#e1e8f0" stroke-width="1" opacity="1"/><line transform="translate(0,729)" x2="2050" y2="0" stroke="#e1e8f0" stroke-width="1" opacity="1"/><line transform="translate(0,693)" x2="2050" y2="0" stroke="#e1e8f0" stroke-width="1" opacity="1"/><line transform="translate(0,658)" x2="2050" y2="0" stroke="#e1e8f0" stroke-width="1" opacity="1"/><line transform="translate(0,622)" x2="2050" y2="0" stroke="#e1e8f0" stroke-width="1" opacity="1"/><line transform="translate(0,587)" x2="2050" y2="0" stroke="#e1e8f0" stroke-width="1" opacity="1"/><line transform="translate(0,551)" x2="2050" y2="0" stroke="#e1e8f0" stroke-width="1" opacity="1"/><line transform="translate(0,516)" x2="2050" y2="0" stroke="#e1e8f0" stroke-width="1" opacity="1"/><line transform="translate(0,480)" x2="2050" y2="0" stroke="#e1e8f0" stroke-width="1" opacity="1"/><line transform="translate(0,444)" x2="2050" y2="0" stroke="#e1e8f0" stroke-width="1" opacity="1"/><line transform="translate(0,409)" x2="2050" y2="0" stroke="#e1e8f0" stroke-width="1" opacity="1"/><line transform="translate(0,373)" x2="2050" y2="0" stroke="#e1e8f0" stroke-width="1" opacity="1"/><line transform="translate(0,338)" x2="2050" y2="0" stroke="#e1e8f0" stroke-width="1" opacity="1"/><line transform="translate(0,302)" x2="2050" y2="0" stroke="#e1e8f0" stroke-width="1" opacity="1"/><line transform="translate(0,267)" x2="2050" y2="0" stroke="#e1e8f0" stroke-width="1" opacity="1"/><line transform="translate(0,231)" x2="2050" y2="0" stroke="#e1e8f0" stroke-width="1" opacity="1"/><line transform="translate(0,196)" x2="2050" y2="0" stroke="#e1e8f0" stroke-width="1" opacity="1"/><line transform="translate(0,160)" x2="2050" y2="0" stroke="#e1e8f0" stroke-width="1" opacity="1"/><line transform="translate(0,124)" x2="2050" y2="0" stroke="#e1e8f0" stroke-width="1" opacity="1"/><line transform="translate(0,89)" x2="2050" y2="0" stroke="#e1e8f0" stroke-width="1" opacity="1"/><line transform="translate(0,53)" x2="2050" y2="0" stroke="#e1e8f0" stroke-width="1" opacity="1"/><line transform="translate(0,18)" x2="2050" y2="0" stroke="#e1e8f0" stroke-width="1" opacity="1"/></g></g><path class="foreground" aria-hidden="true" d="" pointer-events="none" display="none"/></g></g><g class="mark-group role-axis" role="graphics-symbol" aria-roledescription="axis" aria-label="X-axis for a discrete scale with 8 values: 30k_ifelse, 30k_methods, fib, getivar, setivar, ending with str_concat"><g transform="translate(0.5,800.5)"><path class="background" aria-hidden="true" d="M0,0h0v0h0Z" pointer-events="none"/><g><g class="mark-rule role-axis-tick" pointer-events="none"><line transform="translate(149,0)" x2="0" y2="5" stroke="#888" stroke-width="1" opacity="1"/><line transform="translate(399,0)" x2="0" y2="5" stroke="#888" stroke-width="1" opacity="1"/><line transform="translate(650,0)" x2="0" y2="5" stroke="#888" stroke-width="1" opacity="1"/><line transform="translate(900,0)" x2="0" y2="5" stroke="#888" stroke-width="1" opacity="1"/><line transform="translate(1150,0)" x2="0" y2="5" stroke="#888" stroke-width="1" opacity="1"/><line transform="translate(1400,0)" x2="0" y2="5" stroke="#888" stroke-width="1" opacity="1"/><line transform="translate(1650,0)" x2="0" y2="5" stroke="#888" stroke-width="1" opacity="1"/><line transform="translate(1900,0)" x2="0" y2="5" stroke="#888" stroke-width="1" opacity="1"/><line transform="translate(49,0)" x2="0" y2="5" stroke="#888" stroke-width="1" opacity="1"/></g><g class="mark-text role-axis-label" pointer-events="none"><text text-anchor="middle" transform="translate(149.4999999999999,15)" font-family="sans-serif" font-size="10px" fill="#000" opacity="1">30k_ifelse</text><text text-anchor="middle" transform="translate(399.4999999999999,15)" font-family="sans-serif" font-size="10px" fill="#000" opacity="1">30k_methods</text><text text-anchor="middle" transform="translate(649.5,15)" font-family="sans-serif" font-size="10px" fill="#000" opacity="1">fib</text><text text-anchor="middle" transform="translate(899.5,15)" font-family="sans-serif" font-size="10px" fill="#000" opacity="1">getivar</text><text text-anchor="middle" transform="translate(1149.5,15)" font-family="sans-serif" font-size="10px" fill="#000" opacity="1">setivar</text><text text-anchor="middle" transform="translate(1399.5,15)" font-family="sans-serif" font-size="10px" fill="#000" opacity="1">setivar_object</text><text text-anchor="middle" transform="translate(1649.5,15)" font-family="sans-serif" font-size="10px" fill="#000" opacity="1">setivar_young</text><text text-anchor="middle" transform="translate(1899.5,15)" font-family="sans-serif" font-size="10px" fill="#000" opacity="1">str_concat</text><text text-anchor="middle" transform="translate(0,15)" font-family="sans-serif" font-size="10px" fill="#000" opacity="1"/></g><g class="mark-rule role-axis-domain" pointer-events="none"><line transform="translate(0,0)" x2="2050" y2="0" stroke="#e1e8f0" stroke-width="1" opacity="1"/></g></g><path class="foreground" aria-hidden="true" d="" pointer-events="none" display="none"/></g></g><g class="mark-group role-axis" role="graphics-symbol" aria-roledescription="axis" aria-label="Y-axis titled 'Mem MB' for a linear scale with values from 0 to 4,500"><g transform="translate(0.5,0.5)"><path class="background" aria-hidden="true" d="M0,0h0v0h0Z" pointer-events="none"/><g><g class="mark-rule role-axis-tick" pointer-events="none"><line transform="translate(0,800)" x2="-5" y2="0" stroke="#888" stroke-width="1" opacity="1"/><line transform="translate(0,764)" x2="-5" y2="0" stroke="#888" stroke-width="1" opacity="1"/><line transform="translate(0,729)" x2="-5" y2="0" stroke="#888" stroke-width="1" opacity="1"/><line transform="translate(0,693)" x2="-5" y2="0" stroke="#888" stroke-width="1" opacity="1"/><line transform="translate(0,658)" x2="-5" y2="0" stroke="#888" stroke-width="1" opacity="1"/><line transform="translate(0,622)" x2="-5" y2="0" stroke="#888" stroke-width="1" opacity="1"/><line transform="translate(0,587)" x2="-5" y2="0" stroke="#888" stroke-width="1" opacity="1"/><line transform="translate(0,551)" x2="-5" y2="0" stroke="#888" stroke-width="1" opacity="1"/><line transform="translate(0,516)" x2="-5" y2="0" stroke="#888" stroke-width="1" opacity="1"/><line transform="translate(0,480)" x2="-5" y2="0" stroke="#888" stroke-width="1" opacity="1"/><line transform="translate(0,444)" x2="-5" y2="0" stroke="#888" stroke-width="1" opacity="1"/><line transform="translate(0,409)" x2="-5" y2="0" stroke="#888" stroke-width="1" opacity="1"/><line transform="translate(0,373)" x2="-5" y2="0" stroke="#888" stroke-width="1" opacity="1"/><line transform="translate(0,338)" x2="-5" y2="0" stroke="#888" stroke-width="1" opacity="1"/><line transform="translate(0,302)" x2="-5" y2="0" stroke="#888" stroke-width="1" opacity="1"/><line transform="translate(0,267)" x2="-5" y2="0" stroke="#888" stroke-width="1" opacity="1"/><line transform="translate(0,231)" x2="-5" y2="0" stroke="#888" stroke-width="1" opacity="1"/><line transform="translate(0,196)" x2="-5" y2="0" stroke="#888" stroke-width="1" opacity="1"/><line transform="translate(0,160)" x2="-5" y2="0" stroke="#888" stroke-width="1" opacity="1"/><line transform="translate(0,124)" x2="-5" y2="0" stroke="#888" stroke-width="1" opacity="1"/><line transform="translate(0,89)" x2="-5" y2="0" stroke="#888" stroke-width="1" opacity="1"/><line transform="translate(0,53)" x2="-5" y2="0" stroke="#888" stroke-width="1" opacity="1"/><line transform="translate(0,18)" x2="-5" y2="0" stroke="#888" stroke-width="1" opacity="1"/></g><g class="mark-text role-axis-label" pointer-events="none"><text text-anchor="end" transform="translate(-13,804)" font-family="sans-serif" font-size="12px" fill="#000" opacity="1">0</text><text text-anchor="end" transform="translate(-13,768.4444444444445)" font-family="sans-serif" font-size="12px" fill="#000" opacity="1">200</text><text text-anchor="end" transform="translate(-13,732.8888888888889)" font-family="sans-serif" font-size="12px" fill="#000" opacity="1">400</text><text text-anchor="end" transform="translate(-13,697.3333333333334)" font-family="sans-serif" font-size="12px" fill="#000" opacity="1">600</text><text text-anchor="end" transform="translate(-13,661.7777777777777)" font-family="sans-serif" font-size="12px" fill="#000" opacity="1">800</text><text text-anchor="end" transform="translate(-13,626.2222222222223)" font-family="sans-serif" font-size="12px" fill="#000" opacity="1">1,000</text><text text-anchor="end" transform="translate(-13,590.6666666666667)" font-family="sans-serif" font-size="12px" fill="#000" opacity="1">1,200</text><text text-anchor="end" transform="translate(-13,555.1111111111111)" font-family="sans-serif" font-size="12px" fill="#000" opacity="1">1,400</text><text text-anchor="end" transform="translate(-13,519.5555555555555)" font-family="sans-serif" font-size="12px" fill="#000" opacity="1">1,600</text><text text-anchor="end" transform="translate(-13,484)" font-family="sans-serif" font-size="12px" fill="#000" opacity="1">1,800</text><text text-anchor="end" transform="translate(-13,448.44444444444446)" font-family="sans-serif" font-size="12px" fill="#000" opacity="1">2,000</text><text text-anchor="end" transform="translate(-13,412.88888888888886)" font-family="sans-serif" font-size="12px" fill="#000" opacity="1">2,200</text><text text-anchor="end" transform="translate(-13,377.3333333333333)" font-family="sans-serif" font-size="12px" fill="#000" opacity="1">2,400</text><text text-anchor="end" transform="translate(-13,341.7777777777778)" font-family="sans-serif" font-size="12px" fill="#000" opacity="1">2,600</text><text text-anchor="end" transform="translate(-13,306.22222222222223)" font-family="sans-serif" font-size="12px" fill="#000" opacity="1">2,800</text><text text-anchor="end" transform="translate(-13,270.6666666666667)" font-family="sans-serif" font-size="12px" fill="#000" opacity="1">3,000</text><text text-anchor="end" transform="translate(-13,235.1111111111111)" font-family="sans-serif" font-size="12px" fill="#000" opacity="1">3,200</text><text text-anchor="end" transform="translate(-13,199.55555555555557)" font-family="sans-serif" font-size="12px" fill="#000" opacity="1">3,400</text><text text-anchor="end" transform="translate(-13,163.99999999999997)" font-family="sans-serif" font-size="12px" fill="#000" opacity="1">3,600</text><text text-anchor="end" transform="translate(-13,128.44444444444446)" font-family="sans-serif" font-size="12px" fill="#000" opacity="1">3,800</text><text text-anchor="end" transform="translate(-13,92.88888888888893)" font-family="sans-serif" font-size="12px" fill="#000" opacity="1">4,000</text><text text-anchor="end" transform="translate(-13,57.33333333333332)" font-family="sans-serif" font-size="12px" fill="#000" opacity="1">4,200</text><text text-anchor="end" transform="translate(-13,21.777777777777803)" font-family="sans-serif" font-size="12px" fill="#000" opacity="1">4,400</text></g><g class="mark-rule role-axis-domain" pointer-events="none"><line transform="translate(0,800)" x2="0" y2="-800" stroke="#888" stroke-width="1" opacity="1"/></g><g class="mark-text role-axis-title" pointer-events="none"><text text-anchor="middle" transform="translate(-53.683332443237305,400) rotate(-90) translate(0,-3)" font-family="sans-serif" font-size="12px" font-weight="400" fill="#1c2a3a" opacity="1">Mem MB</text></g></g><path class="foreground" aria-hidden="true" d="" pointer-events="none" display="none"/></g></g><g class="mark-rect role-mark marks" role="graphics-object" aria-roledescription="rect mark container"><path aria-label="benchmark_name: setivar_young; Mem MB: 17.98046875; compiler: mjit-3.2.2" role="graphics-symbol" aria-roledescription="bar" d="M1600,796.8034722222222h25.000000000000004v3.19652777777776h-25.000000000000004Z" fill="#e2474d"/><path aria-label="benchmark_name: str_concat; Mem MB: 89.84765625; compiler: mjit-3.2.2" role="graphics-symbol" aria-roledescription="bar" d="M1850,784.0270833333333h25.000000000000004v15.97291666666672h-25.000000000000004Z" fill="#e2474d"/><path aria-label="benchmark_name: setivar; Mem MB: 17.98046875; compiler: mjit-3.2.2" role="graphics-symbol" aria-roledescription="bar" d="M1100,796.8034722222222h25.000000000000004v3.19652777777776h-25.000000000000004Z" fill="#e2474d"/><path aria-label="benchmark_name: 30k_ifelse; Mem MB: 83.3359375; compiler: mjit-3.2.2" role="graphics-symbol" aria-roledescription="bar" d="M99.99999999999989,785.1847222222223h25.000000000000004v14.815277777777737h-25.000000000000004Z" fill="#e2474d"/><path aria-label="benchmark_name: fib; Mem MB: 18.40234375; compiler: mjit-3.2.2" role="graphics-symbol" aria-roledescription="bar" d="M600,796.7284722222222h25.000000000000004v3.2715277777778056h-25.000000000000004Z" fill="#e2474d"/><path aria-label="benchmark_name: setivar_object; Mem MB: 17.9765625; compiler: mjit-3.2.2" role="graphics-symbol" aria-roledescription="bar" d="M1350,796.8041666666667h25.000000000000004v3.1958333333333258h-25.000000000000004Z" fill="#e2474d"/><path aria-label="benchmark_name: getivar; Mem MB: 17.98046875; compiler: mjit-3.2.2" role="graphics-symbol" aria-roledescription="bar" d="M850,796.8034722222222h25.000000000000004v3.19652777777776h-25.000000000000004Z" fill="#e2474d"/><path aria-label="benchmark_name: 30k_methods; Mem MB: 57.76953125; compiler: mjit-3.2.2" role="graphics-symbol" aria-roledescription="bar" d="M349.9999999999999,789.7298611111112h25.000000000000004v10.270138888888823h-25.000000000000004Z" fill="#e2474d"/><path aria-label="benchmark_name: setivar_young; Mem MB: 20.09375; compiler: rjit-3.3.0preview2" role="graphics-symbol" aria-roledescription="bar" d="M1625,796.4277777777777h25.000000000000004v3.572222222222308h-25.000000000000004Z" fill="#4aa148"/><path aria-label="benchmark_name: str_concat; Mem MB: 48.671875; compiler: rjit-3.3.0preview2" role="graphics-symbol" aria-roledescription="bar" d="M1875,791.3472222222223h25.000000000000004v8.652777777777715h-25.000000000000004Z" fill="#4aa148"/><path aria-label="benchmark_name: setivar; Mem MB: 19.28515625; compiler: rjit-3.3.0preview2" role="graphics-symbol" aria-roledescription="bar" d="M1125,796.5715277777778h25.000000000000004v3.42847222222224h-25.000000000000004Z" fill="#4aa148"/><path aria-label="benchmark_name: 30k_ifelse; Mem MB: 3631.53515625; compiler: rjit-3.3.0preview2" role="graphics-symbol" aria-roledescription="bar" d="M124.9999999999999,154.39375h25.000000000000004v645.60625h-25.000000000000004Z" fill="#4aa148"/><path aria-label="benchmark_name: fib; Mem MB: 18.1796875; compiler: rjit-3.3.0preview2" role="graphics-symbol" aria-roledescription="bar" d="M625,796.7680555555556h25.000000000000004v3.231944444444366h-25.000000000000004Z" fill="#4aa148"/><path aria-label="benchmark_name: setivar_object; Mem MB: 19.515625; compiler: rjit-3.3.0preview2" role="graphics-symbol" aria-roledescription="bar" d="M1375,796.5305555555556h25.000000000000004v3.4694444444444343h-25.000000000000004Z" fill="#4aa148"/><path aria-label="benchmark_name: getivar; Mem MB: 20.23828125; compiler: rjit-3.3.0preview2" role="graphics-symbol" aria-roledescription="bar" d="M875,796.4020833333334h25.000000000000004v3.597916666666606h-25.000000000000004Z" fill="#4aa148"/><path aria-label="benchmark_name: 30k_methods; Mem MB: 1552.703125; compiler: rjit-3.3.0preview2" role="graphics-symbol" aria-roledescription="bar" d="M374.9999999999999,523.9638888888888h25.000000000000004v276.03611111111115h-25.000000000000004Z" fill="#4aa148"/><path aria-label="benchmark_name: setivar_young; Mem MB: 16.87109375; compiler: ruby-3.2.2" role="graphics-symbol" aria-roledescription="bar" d="M1550,797.0006944444444h25.000000000000004v2.9993055555555657h-25.000000000000004Z" fill="#6583ff"/><path aria-label="benchmark_name: str_concat; Mem MB: 82.48046875; compiler: ruby-3.2.2" role="graphics-symbol" aria-roledescription="bar" d="M1800,785.3368055555555h25.000000000000004v14.663194444444457h-25.000000000000004Z" fill="#6583ff"/><path aria-label="benchmark_name: setivar; Mem MB: 16.875; compiler: ruby-3.2.2" role="graphics-symbol" aria-roledescription="bar" d="M1050,797h25.000000000000004v3h-25.000000000000004Z" fill="#6583ff"/><path aria-label="benchmark_name: 30k_ifelse; Mem MB: 58.671875; compiler: ruby-3.2.2" role="graphics-symbol" aria-roledescription="bar" d="M49.999999999999886,789.5694444444445h25.000000000000004v10.430555555555543h-25.000000000000004Z" fill="#6583ff"/><path aria-label="benchmark_name: fib; Mem MB: 16.86328125; compiler: ruby-3.2.2" role="graphics-symbol" aria-roledescription="bar" d="M550,797.0020833333333h25.000000000000004v2.997916666666697h-25.000000000000004Z" fill="#6583ff"/><path aria-label="benchmark_name: setivar_object; Mem MB: 16.875; compiler: ruby-3.2.2" role="graphics-symbol" aria-roledescription="bar" d="M1300,797h25.000000000000004v3h-25.000000000000004Z" fill="#6583ff"/><path aria-label="benchmark_name: getivar; Mem MB: 16.87109375; compiler: ruby-3.2.2" role="graphics-symbol" aria-roledescription="bar" d="M800,797.0006944444444h25.000000000000004v2.9993055555555657h-25.000000000000004Z" fill="#6583ff"/><path aria-label="benchmark_name: 30k_methods; Mem MB: 48.859375; compiler: ruby-3.2.2" role="graphics-symbol" aria-roledescription="bar" d="M299.9999999999999,791.3138888888889h25.000000000000004v8.686111111111131h-25.000000000000004Z" fill="#6583ff"/><path aria-label="benchmark_name: setivar_young; Mem MB: 12.14453125; compiler: ruby-3.3.0preview2" role="graphics-symbol" aria-roledescription="bar" d="M1575,797.8409722222223h25.000000000000004v2.1590277777777374h-25.000000000000004Z" fill="#ffa83f"/><path aria-label="benchmark_name: str_concat; Mem MB: 38.390625; compiler: ruby-3.3.0preview2" role="graphics-symbol" aria-roledescription="bar" d="M1825,793.175h25.000000000000004v6.8250000000000455h-25.000000000000004Z" fill="#ffa83f"/><path aria-label="benchmark_name: setivar; Mem MB: 12.14453125; compiler: ruby-3.3.0preview2" role="graphics-symbol" aria-roledescription="bar" d="M1075,797.8409722222223h25.000000000000004v2.1590277777777374h-25.000000000000004Z" fill="#ffa83f"/><path aria-label="benchmark_name: 30k_ifelse; Mem MB: 54.47265625; compiler: ruby-3.3.0preview2" role="graphics-symbol" aria-roledescription="bar" d="M74.99999999999989,790.3159722222222h25.000000000000004v9.684027777777828h-25.000000000000004Z" fill="#ffa83f"/><path aria-label="benchmark_name: fib; Mem MB: 12.13671875; compiler: ruby-3.3.0preview2" role="graphics-symbol" aria-roledescription="bar" d="M575,797.8423611111111h25.000000000000004v2.1576388888888687h-25.000000000000004Z" fill="#ffa83f"/><path aria-label="benchmark_name: setivar_object; Mem MB: 12.14453125; compiler: ruby-3.3.0preview2" role="graphics-symbol" aria-roledescription="bar" d="M1325,797.8409722222223h25.000000000000004v2.1590277777777374h-25.000000000000004Z" fill="#ffa83f"/><path aria-label="benchmark_name: getivar; Mem MB: 12.14453125; compiler: ruby-3.3.0preview2" role="graphics-symbol" aria-roledescription="bar" d="M825,797.8409722222223h25.000000000000004v2.1590277777777374h-25.000000000000004Z" fill="#ffa83f"/><path aria-label="benchmark_name: 30k_methods; Mem MB: 45.2109375; compiler: ruby-3.3.0preview2" role="graphics-symbol" aria-roledescription="bar" d="M324.9999999999999,791.9625h25.000000000000004v8.037500000000023h-25.000000000000004Z" fill="#ffa83f"/><path aria-label="benchmark_name: setivar_young; Mem MB: 436.89453125; compiler: truffleruby-23.1.0-jvm" role="graphics-symbol" aria-roledescription="bar" d="M1725,722.3298611111111h25.000000000000004v77.67013888888891h-25.000000000000004Z" fill="#137518"/><path aria-label="benchmark_name: str_concat; Mem MB: 2168.34375; compiler: truffleruby-23.1.0-jvm" role="graphics-symbol" aria-roledescription="bar" d="M1975,414.51666666666665h25.000000000000004v385.48333333333335h-25.000000000000004Z" fill="#137518"/><path aria-label="benchmark_name: setivar; Mem MB: 574.3984375; compiler: truffleruby-23.1.0-jvm" role="graphics-symbol" aria-roledescription="bar" d="M1225,697.8847222222222h25.000000000000004v102.1152777777778h-25.000000000000004Z" fill="#137518"/><path aria-label="benchmark_name: 30k_ifelse; Mem MB: 2868.921875; compiler: truffleruby-23.1.0-jvm" role="graphics-symbol" aria-roledescription="bar" d="M224.99999999999991,289.96944444444443h25.000000000000004v510.03055555555557h-25.000000000000004Z" fill="#137518"/><path aria-label="benchmark_name: fib; Mem MB: 1798.12890625; compiler: truffleruby-23.1.0-jvm" role="graphics-symbol" aria-roledescription="bar" d="M725,480.33263888888894h25.000000000000004v319.66736111111106h-25.000000000000004Z" fill="#137518"/><path aria-label="benchmark_name: setivar_object; Mem MB: 417.4921875; compiler: truffleruby-23.1.0-jvm" role="graphics-symbol" aria-roledescription="bar" d="M1475,725.7791666666667h25.000000000000004v74.2208333333333h-25.000000000000004Z" fill="#137518"/><path aria-label="benchmark_name: getivar; Mem MB: 352.34375; compiler: truffleruby-23.1.0-jvm" role="graphics-symbol" aria-roledescription="bar" d="M975,737.3611111111111h25.000000000000004v62.638888888888914h-25.000000000000004Z" fill="#137518"/><path aria-label="benchmark_name: 30k_methods; Mem MB: 2103.54296875; compiler: truffleruby-23.1.0-jvm" role="graphics-symbol" aria-roledescription="bar" d="M474.9999999999999,426.03680555555553h25.000000000000004v373.96319444444447h-25.000000000000004Z" fill="#137518"/><path aria-label="benchmark_name: setivar_young; Mem MB: 933.7890625; compiler: truffleruby-23.1.0-native" role="graphics-symbol" aria-roledescription="bar" d="M1700,633.9930555555557h25.000000000000004v166.00694444444434h-25.000000000000004Z" fill="#bc1227"/><path aria-label="benchmark_name: str_concat; Mem MB: 1955.22265625; compiler: truffleruby-23.1.0-native" role="graphics-symbol" aria-roledescription="bar" d="M1950,452.4048611111111h25.000000000000004v347.5951388888889h-25.000000000000004Z" fill="#bc1227"/><path aria-label="benchmark_name: setivar; Mem MB: 938.87890625; compiler: truffleruby-23.1.0-native" role="graphics-symbol" aria-roledescription="bar" d="M1200,633.0881944444444h25.000000000000004v166.9118055555556h-25.000000000000004Z" fill="#bc1227"/><path aria-label="benchmark_name: 30k_ifelse; Mem MB: 3582.625; compiler: truffleruby-23.1.0-native" role="graphics-symbol" aria-roledescription="bar" d="M199.99999999999991,163.08888888888893h25.000000000000004v636.911111111111h-25.000000000000004Z" fill="#bc1227"/><path aria-label="benchmark_name: fib; Mem MB: 885.8203125; compiler: truffleruby-23.1.0-native" role="graphics-symbol" aria-roledescription="bar" d="M700,642.5208333333334h25.000000000000004v157.47916666666663h-25.000000000000004Z" fill="#bc1227"/><path aria-label="benchmark_name: setivar_object; Mem MB: 766.921875; compiler: truffleruby-23.1.0-native" role="graphics-symbol" aria-roledescription="bar" d="M1450,663.6583333333333h25.000000000000004v136.3416666666667h-25.000000000000004Z" fill="#bc1227"/><path aria-label="benchmark_name: getivar; Mem MB: 932.50390625; compiler: truffleruby-23.1.0-native" role="graphics-symbol" aria-roledescription="bar" d="M950,634.2215277777779h25.000000000000004v165.77847222222215h-25.000000000000004Z" fill="#bc1227"/><path aria-label="benchmark_name: 30k_methods; Mem MB: 4367.0625; compiler: truffleruby-23.1.0-native" role="graphics-symbol" aria-roledescription="bar" d="M449.9999999999999,23.63333333333335h25.000000000000004v776.3666666666667h-25.000000000000004Z" fill="#bc1227"/><path aria-label="benchmark_name: setivar_young; Mem MB: 17.3828125; compiler: yjit-3.2.2" role="graphics-symbol" aria-roledescription="bar" d="M1650,796.9097222222223h25.000000000000004v3.0902777777777146h-25.000000000000004Z" fill="#2d4cdb"/><path aria-label="benchmark_name: str_concat; Mem MB: 90.69140625; compiler: yjit-3.2.2" role="graphics-symbol" aria-roledescription="bar" d="M1900,783.8770833333333h25.000000000000004v16.122916666666697h-25.000000000000004Z" fill="#2d4cdb"/><path aria-label="benchmark_name: setivar; Mem MB: 17.375; compiler: yjit-3.2.2" role="graphics-symbol" aria-roledescription="bar" d="M1150,796.9111111111112h25.000000000000004v3.088888888888846h-25.000000000000004Z" fill="#2d4cdb"/><path aria-label="benchmark_name: 30k_ifelse; Mem MB: 106.3359375; compiler: yjit-3.2.2" role="graphics-symbol" aria-roledescription="bar" d="M149.9999999999999,781.0958333333334h25.000000000000004v18.904166666666583h-25.000000000000004Z" fill="#2d4cdb"/><path aria-label="benchmark_name: fib; Mem MB: 17.35546875; compiler: yjit-3.2.2" role="graphics-symbol" aria-roledescription="bar" d="M650,796.9145833333333h25.000000000000004v3.0854166666666742h-25.000000000000004Z" fill="#2d4cdb"/><path aria-label="benchmark_name: setivar_object; Mem MB: 17.3671875; compiler: yjit-3.2.2" role="graphics-symbol" aria-roledescription="bar" d="M1400,796.9125h25.000000000000004v3.0874999999999773h-25.000000000000004Z" fill="#2d4cdb"/><path aria-label="benchmark_name: getivar; Mem MB: 17.390625; compiler: yjit-3.2.2" role="graphics-symbol" aria-roledescription="bar" d="M900,796.9083333333334h25.000000000000004v3.0916666666665833h-25.000000000000004Z" fill="#2d4cdb"/><path aria-label="benchmark_name: 30k_methods; Mem MB: 63.4921875; compiler: yjit-3.2.2" role="graphics-symbol" aria-roledescription="bar" d="M399.9999999999999,788.7125h25.000000000000004v11.287500000000023h-25.000000000000004Z" fill="#2d4cdb"/><path aria-label="benchmark_name: setivar_young; Mem MB: 12.59375; compiler: yjit-3.3.0preview2" role="graphics-symbol" aria-roledescription="bar" d="M1675,797.7611111111111h25.000000000000004v2.238888888888937h-25.000000000000004Z" fill="#b7641f"/><path aria-label="benchmark_name: str_concat; Mem MB: 38.83984375; compiler: yjit-3.3.0preview2" role="graphics-symbol" aria-roledescription="bar" d="M1925,793.0951388888889h25.000000000000004v6.904861111111131h-25.000000000000004Z" fill="#b7641f"/><path aria-label="benchmark_name: setivar; Mem MB: 12.59375; compiler: yjit-3.3.0preview2" role="graphics-symbol" aria-roledescription="bar" d="M1175,797.7611111111111h25.000000000000004v2.238888888888937h-25.000000000000004Z" fill="#b7641f"/><path aria-label="benchmark_name: 30k_ifelse; Mem MB: 90.27734375; compiler: yjit-3.3.0preview2" role="graphics-symbol" aria-roledescription="bar" d="M174.9999999999999,783.9506944444445h25.000000000000004v16.04930555555552h-25.000000000000004Z" fill="#b7641f"/><path aria-label="benchmark_name: fib; Mem MB: 12.5859375; compiler: yjit-3.3.0preview2" role="graphics-symbol" aria-roledescription="bar" d="M675,797.7624999999999h25.000000000000004v2.237500000000068h-25.000000000000004Z" fill="#b7641f"/><path aria-label="benchmark_name: setivar_object; Mem MB: 12.59375; compiler: yjit-3.3.0preview2" role="graphics-symbol" aria-roledescription="bar" d="M1425,797.7611111111111h25.000000000000004v2.238888888888937h-25.000000000000004Z" fill="#b7641f"/><path aria-label="benchmark_name: getivar; Mem MB: 12.59375; compiler: yjit-3.3.0preview2" role="graphics-symbol" aria-roledescription="bar" d="M925,797.7611111111111h25.000000000000004v2.238888888888937h-25.000000000000004Z" fill="#b7641f"/><path aria-label="benchmark_name: 30k_methods; Mem MB: 56.390625; compiler: yjit-3.3.0preview2" role="graphics-symbol" aria-roledescription="bar" d="M424.9999999999999,789.975h25.000000000000004v10.024999999999977h-25.000000000000004Z" fill="#b7641f"/></g><g class="mark-group role-legend" role="graphics-symbol" aria-roledescription="legend" aria-label="Symbol legend for fill color with 8 values: ruby-3.2.2, ruby-3.3.0preview2, mjit-3.2.2, rjit-3.3.0preview2, yjit-3.2.2, ending with truffleruby-23.1.0-jvm"><g transform="translate(565,-30)"><path class="background" aria-hidden="true" d="M0,0h921v12h-921Z" pointer-events="none"/><g><g class="mark-group role-legend-entry"><g transform="translate(0,0)"><path class="background" aria-hidden="true" d="M0,0h0v0h0Z" pointer-events="none"/><g><g class="mark-group role-scope" role="graphics-object" aria-roledescription="group mark container"><g transform="translate(0,0)"><path class="background" aria-hidden="true" d="M0,0h72.51666641235352v12h-72.51666641235352Z" pointer-events="none" opacity="1"/><g><g class="mark-symbol role-legend-symbol" pointer-events="none"><path transform="translate(6,6)" d="M5,0A5,5,0,1,1,-5,0A5,5,0,1,1,5,0" fill="#6583ff" stroke-width="1.5" opacity="1"/></g><g class="mark-text role-legend-label" pointer-events="none"><text text-anchor="start" transform="translate(16,10)" font-family="sans-serif" font-size="12px" fill="#000" opacity="1">ruby-3.2.2</text></g></g><path class="foreground" aria-hidden="true" d="" pointer-events="none" display="none"/></g><g transform="translate(83,0)"><path class="background" aria-hidden="true" d="M0,0h123.18333435058594v12h-123.18333435058594Z" pointer-events="none" opacity="1"/><g><g class="mark-symbol role-legend-symbol" pointer-events="none"><path transform="translate(6,6)" d="M5,0A5,5,0,1,1,-5,0A5,5,0,1,1,5,0" fill="#ffa83f" stroke-width="1.5" opacity="1"/></g><g class="mark-text role-legend-label" pointer-events="none"><text text-anchor="start" transform="translate(16,10)" font-family="sans-serif" font-size="12px" fill="#000" opacity="1">ruby-3.3.0preview2</text></g></g><path class="foreground" aria-hidden="true" d="" pointer-events="none" display="none"/></g><g transform="translate(217,0)"><path class="background" aria-hidden="true" d="M0,0h68.6500015258789v12h-68.6500015258789Z" pointer-events="none" opacity="1"/><g><g class="mark-symbol role-legend-symbol" pointer-events="none"><path transform="translate(6,6)" d="M5,0A5,5,0,1,1,-5,0A5,5,0,1,1,5,0" fill="#e2474d" stroke-width="1.5" opacity="1"/></g><g class="mark-text role-legend-label" pointer-events="none"><text text-anchor="start" transform="translate(16,10)" font-family="sans-serif" font-size="12px" fill="#000" opacity="1">mjit-3.2.2</text></g></g><path class="foreground" aria-hidden="true" d="" pointer-events="none" display="none"/></g><g transform="translate(296,0)"><path class="background" aria-hidden="true" d="M0,0h113.05000305175781v12h-113.05000305175781Z" pointer-events="none" opacity="1"/><g><g class="mark-symbol role-legend-symbol" pointer-events="none"><path transform="translate(6,6)" d="M5,0A5,5,0,1,1,-5,0A5,5,0,1,1,5,0" fill="#4aa148" stroke-width="1.5" opacity="1"/></g><g class="mark-text role-legend-label" pointer-events="none"><text text-anchor="start" transform="translate(16,10)" font-family="sans-serif" font-size="12px" fill="#000" opacity="1">rjit-3.3.0preview2</text></g></g><path class="foreground" aria-hidden="true" d="" pointer-events="none" display="none"/></g><g transform="translate(420,0)"><path class="background" aria-hidden="true" d="M0,0h63.54999923706055v12h-63.54999923706055Z" pointer-events="none" opacity="1"/><g><g class="mark-symbol role-legend-symbol" pointer-events="none"><path transform="translate(6,6)" d="M5,0A5,5,0,1,1,-5,0A5,5,0,1,1,5,0" fill="#2d4cdb" stroke-width="1.5" opacity="1"/></g><g class="mark-text role-legend-label" pointer-events="none"><text text-anchor="start" transform="translate(16,10)" font-family="sans-serif" font-size="12px" fill="#000" opacity="1">yjit-3.2.2</text></g></g><path class="foreground" aria-hidden="true" d="" pointer-events="none" display="none"/></g><g transform="translate(494,0)"><path class="background" aria-hidden="true" d="M0,0h114.21666717529297v12h-114.21666717529297Z" pointer-events="none" opacity="1"/><g><g class="mark-symbol role-legend-symbol" pointer-events="none"><path transform="translate(6,6)" d="M5,0A5,5,0,1,1,-5,0A5,5,0,1,1,5,0" fill="#b7641f" stroke-width="1.5" opacity="1"/></g><g class="mark-text role-legend-label" pointer-events="none"><text text-anchor="start" transform="translate(16,10)" font-family="sans-serif" font-size="12px" fill="#000" opacity="1">yjit-3.3.0preview2</text></g></g><path class="foreground" aria-hidden="true" d="" pointer-events="none" display="none"/></g><g transform="translate(619,0)"><path class="background" aria-hidden="true" d="M0,0h152.51666259765625v12h-152.51666259765625Z" pointer-events="none" opacity="1"/><g><g class="mark-symbol role-legend-symbol" pointer-events="none"><path transform="translate(6,6)" d="M5,0A5,5,0,1,1,-5,0A5,5,0,1,1,5,0" fill="#bc1227" stroke-width="1.5" opacity="1"/></g><g class="mark-text role-legend-label" pointer-events="none"><text text-anchor="start" transform="translate(16,10)" font-family="sans-serif" font-size="12px" fill="#000" opacity="1">truffleruby-23.1.0-native</text></g></g><path class="foreground" aria-hidden="true" d="" pointer-events="none" display="none"/></g><g transform="translate(782,0)"><path class="background" aria-hidden="true" d="M0,0h138.48332977294922v12h-138.48332977294922Z" pointer-events="none" opacity="1"/><g><g class="mark-symbol role-legend-symbol" pointer-events="none"><path transform="translate(6,6)" d="M5,0A5,5,0,1,1,-5,0A5,5,0,1,1,5,0" fill="#137518" stroke-width="1.5" opacity="1"/></g><g class="mark-text role-legend-label" pointer-events="none"><text text-anchor="start" transform="translate(16,10)" font-family="sans-serif" font-size="12px" fill="#000" opacity="1">truffleruby-23.1.0-jvm</text></g></g><path class="foreground" aria-hidden="true" d="" pointer-events="none" display="none"/></g></g></g><path class="foreground" aria-hidden="true" d="" pointer-events="none" display="none"/></g></g></g><path class="foreground" aria-hidden="true" d="" pointer-events="none" display="none"/></g></g><g class="mark-group role-title"><g transform="translate(991.6583337783813,-52)"><path class="background" aria-hidden="true" d="M0,0h0v0h0Z" pointer-events="none"/><g><g class="mark-text role-title-text" role="graphics-symbol" aria-roledescription="title" aria-label="Title text 'Micro (mem mb)'" pointer-events="none"><text text-anchor="middle" transform="translate(0,14)" font-family="Inter" font-size="18px" font-weight="400" fill="#445668" opacity="1">Micro (mem mb)</text></g></g><path class="foreground" aria-hidden="true" d="" pointer-events="none" display="none"/></g></g></g><path class="foreground" aria-hidden="true" d="" display="none"/></g></g></g></svg>